<svg version="1.1" xmlns="http://www.w3.org/2000/svg" viewBox="0 0 1301.7658534704335 345" width="1301.7658534704335" height="345">
  <!-- svg-source:excalidraw -->
  
  <defs>
    <style class="style-fonts">
      @font-face {
        font-family: "Virgil";
        src: url("https://excalidraw.com/Virgil.woff2");
      }
      @font-face {
        font-family: "Cascadia";
        src: url("https://excalidraw.com/Cascadia.woff2");
      }
    </style>
    
  </defs>
  <rect x="0" y="0" width="1301.7658534704335" height="345" fill="#ffffff"></rect><g stroke-linecap="round" transform="translate(11.765853470433512 50) rotate(0 640 120)"><path d="M32 0 M32 0 C517.06 3.59, 1000.05 4.23, 1248 0 M32 0 C381.13 -2.61, 729.68 -1.9, 1248 0 M1248 0 C1268.71 -1.71, 1279.11 10.28, 1280 32 M1248 0 C1269.33 -2.17, 1281.97 9.63, 1280 32 M1280 32 C1281.62 67.74, 1278.51 105.9, 1280 208 M1280 32 C1280.6 83.91, 1280.61 137.15, 1280 208 M1280 208 C1279.02 229.27, 1269.71 241.73, 1248 240 M1280 208 C1279.07 230.42, 1267.98 239.9, 1248 240 M1248 240 C942.98 240.52, 638.35 240.03, 32 240 M1248 240 C948.21 244.91, 647.97 244.81, 32 240 M32 240 C12.61 239.72, -0.72 227.45, 0 208 M32 240 C8.76 241.26, -1.28 227.42, 0 208 M0 208 C2.49 146.12, 0 85.17, 0 32 M0 208 C0.87 143.79, 0.61 79.5, 0 32 M0 32 C-1.77 12.26, 12.13 -1.89, 32 0 M0 32 C0.29 11.5, 12.27 -1.37, 32 0" stroke="#1e1e1e" stroke-width="1" fill="none"></path></g><g stroke-linecap="round" transform="translate(71.76585347043351 130) rotate(0 70 30)"><path d="M15 0 M15 0 C43.94 1.65, 70.88 -0.26, 125 0 M15 0 C41.67 0.06, 66.76 1.63, 125 0 M125 0 C133 1.97, 139.52 4.27, 140 15 M125 0 C137.17 0.1, 138.38 5.47, 140 15 M140 15 C141.53 25.59, 139.23 31.54, 140 45 M140 15 C139.84 27.27, 139.34 38.15, 140 45 M140 45 C138.85 56.73, 135.28 58.52, 125 60 M140 45 C141.79 55.61, 132.73 61.85, 125 60 M125 60 C82.43 61.59, 38.21 59.76, 15 60 M125 60 C85.98 60.03, 45.98 59.57, 15 60 M15 60 C5.64 59.93, 0.16 54.24, 0 45 M15 60 C5.62 59.26, 1.95 55.31, 0 45 M0 45 C-1.95 39.16, -1.01 30.42, 0 15 M0 45 C0.39 35.72, 0 25.17, 0 15 M0 15 C-1.16 5.08, 3.85 0.64, 15 0 M0 15 C-1.88 6.03, 3.31 1.49, 15 0" stroke="#1e1e1e" stroke-width="1" fill="none"></path></g><g transform="translate(96.70588642941789 147.5) rotate(0 45.059967041015625 12.5)"><text x="45.059967041015625" y="0" font-family="Virgil, Segoe UI Emoji" font-size="20px" fill="#1e1e1e" text-anchor="middle" style="white-space: pre;" direction="ltr" dominant-baseline="text-before-edge">InHandler</text></g><g stroke-linecap="round" transform="translate(51.76585347043351 70) rotate(0 90 70)"><path d="M32 0 M32 0 C58.94 0.32, 87.3 -1.99, 148 0 M32 0 C76.31 -1.51, 122.04 -1.1, 148 0 M148 0 C167.92 0.4, 179.97 9.17, 180 32 M148 0 C170.98 2.02, 181.87 10.03, 180 32 M180 32 C180.34 49.2, 182.37 65.79, 180 108 M180 32 C179.7 56.92, 180.34 83.6, 180 108 M180 108 C178.02 130.94, 171.3 138.81, 148 140 M180 108 C180.89 130.74, 170.67 140.92, 148 140 M148 140 C117.39 141.09, 85.86 139.57, 32 140 M148 140 C120.27 139.58, 92.66 139.64, 32 140 M32 140 C12.36 140.27, -1.46 129.46, 0 108 M32 140 C11.98 137.78, 1.11 128.19, 0 108 M0 108 C1.16 89.7, 0.62 69.8, 0 32 M0 108 C-0.13 89.21, -0.37 70.22, 0 32 M0 32 C-1.47 11.96, 10.23 1.4, 32 0 M0 32 C-1.23 11.47, 10.1 1.57, 32 0" stroke="#1e1e1e" stroke-width="1" fill="none"></path></g><g transform="translate(91.76585347043351 90) rotate(0 52.64995574951172 12.5)"><text x="0" y="0" font-family="Virgil, Segoe UI Emoji" font-size="20px" fill="#1e1e1e" text-anchor="start" style="white-space: pre;" direction="ltr" dominant-baseline="text-before-edge">HandlerCtx</text></g><g stroke-linecap="round" transform="translate(331.7658534704335 190) rotate(0 70 30)"><path d="M15 0 M15 0 C44.55 2.24, 77.31 0.96, 125 0 M15 0 C49.18 0.12, 82.09 0.5, 125 0 M125 0 C134.91 -0.23, 141.01 6.83, 140 15 M125 0 C133.04 1.65, 140 5.44, 140 15 M140 15 C140.49 22.8, 140.42 29.79, 140 45 M140 15 C140.81 25.05, 139.4 36.36, 140 45 M140 45 C140.39 54.16, 135.86 61.12, 125 60 M140 45 C139.9 53.99, 133.03 60.18, 125 60 M125 60 C82.71 58.76, 41.26 58.62, 15 60 M125 60 C84.42 60.17, 44.43 59.44, 15 60 M15 60 C5.86 60.82, 0.83 54.82, 0 45 M15 60 C5.81 60.36, 0.46 53.69, 0 45 M0 45 C0.51 37.66, -0.56 28.93, 0 15 M0 45 C-0.53 35.78, -0.2 28.68, 0 15 M0 15 C-1.41 6.12, 5.08 -1.65, 15 0 M0 15 C1.46 3.83, 7.24 -0.68, 15 0" stroke="#1e1e1e" stroke-width="1" fill="none"></path></g><g transform="translate(348.2359004675038 207.5) rotate(0 53.52995300292969 12.5)"><text x="53.52995300292969" y="0" font-family="Virgil, Segoe UI Emoji" font-size="20px" fill="#1e1e1e" text-anchor="middle" style="white-space: pre;" direction="ltr" dominant-baseline="text-before-edge">OutHandler</text></g><g stroke-linecap="round" transform="translate(311.7658534704335 130) rotate(0 90 70)"><path d="M32 0 M32 0 C75.91 -1.53, 119.8 1.77, 148 0 M32 0 C68.55 -0.73, 105.7 0.29, 148 0 M148 0 C167.63 1.43, 180 11.05, 180 32 M148 0 C168.28 1.01, 181.69 11.08, 180 32 M180 32 C181.1 56.84, 178.56 80.14, 180 108 M180 32 C179.59 51.04, 179.82 71.49, 180 108 M180 108 C179.91 128.45, 167.62 140.16, 148 140 M180 108 C181.73 130.03, 167.16 138.85, 148 140 M148 140 C115.75 140.14, 81.29 140, 32 140 M148 140 C115.42 139.4, 82.4 138.89, 32 140 M32 140 C11.37 140.31, 0.4 128.2, 0 108 M32 140 C9.16 140.34, 1.65 129.97, 0 108 M0 108 C-0.15 86.84, -0.62 63.79, 0 32 M0 108 C-0.61 91.35, 0.13 72.75, 0 32 M0 32 C1.27 9.65, 12.62 -0.59, 32 0 M0 32 C0.97 12.1, 12.71 0.18, 32 0" stroke="#1e1e1e" stroke-width="1" fill="none"></path></g><g transform="translate(351.7658534704335 150) rotate(0 52.64995574951172 12.5)"><text x="0" y="0" font-family="Virgil, Segoe UI Emoji" font-size="20px" fill="#1e1e1e" text-anchor="start" style="white-space: pre;" direction="ltr" dominant-baseline="text-before-edge">HandlerCtx</text></g><g stroke-linecap="round" transform="translate(591.7658534704335 130) rotate(0 70 30)"><path d="M15 0 M15 0 C43.28 2.12, 70.63 1.93, 125 0 M15 0 C47.91 0.28, 81.55 -0.28, 125 0 M125 0 C136.25 1.78, 140.16 6.9, 140 15 M125 0 C135.75 2.14, 141.02 7.26, 140 15 M140 15 C141.5 23.05, 141.61 29.92, 140 45 M140 15 C140.46 25.91, 139.18 38.78, 140 45 M140 45 C141.96 53.12, 134.95 60.28, 125 60 M140 45 C139.49 54.48, 133.65 61.26, 125 60 M125 60 C95.68 61.88, 66.51 59.07, 15 60 M125 60 C83.43 59.41, 41.78 59.84, 15 60 M15 60 C5.06 59.17, 1.03 54.62, 0 45 M15 60 C2.9 61.7, -0.25 56.71, 0 45 M0 45 C-0.91 36.79, 0.98 31.67, 0 15 M0 45 C-0.64 36.11, -0.13 26.92, 0 15 M0 15 C0.25 3.39, 6.34 0.65, 15 0 M0 15 C-0.95 4.1, 5.66 -1.03, 15 0" stroke="#1e1e1e" stroke-width="1" fill="none"></path></g><g transform="translate(616.7058864294179 147.5) rotate(0 45.059967041015625 12.5)"><text x="45.059967041015625" y="0" font-family="Virgil, Segoe UI Emoji" font-size="20px" fill="#1e1e1e" text-anchor="middle" style="white-space: pre;" direction="ltr" dominant-baseline="text-before-edge">InHandler</text></g><g stroke-linecap="round" transform="translate(571.7658534704335 70) rotate(0 90 70)"><path d="M32 0 M32 0 C74.47 -2.3, 118.06 -1.67, 148 0 M32 0 C78.74 0.4, 124.3 0.46, 148 0 M148 0 C169.98 1.86, 180.89 12.63, 180 32 M148 0 C168.78 0.47, 180.54 12.32, 180 32 M180 32 C182.25 54.86, 181.89 76.51, 180 108 M180 32 C180.25 49.45, 179.25 68.92, 180 108 M180 108 C179.55 128.88, 168.16 141.09, 148 140 M180 108 C179.16 129.4, 170.02 139.63, 148 140 M148 140 C105.78 138.69, 59.04 139.61, 32 140 M148 140 C111.51 140.26, 75.47 140.49, 32 140 M32 140 C8.84 141.48, -0.21 130.82, 0 108 M32 140 C8.97 140.46, 0.22 128.36, 0 108 M0 108 C-0.48 89.98, -2.02 71.75, 0 32 M0 108 C0.3 84.57, 0.84 63.07, 0 32 M0 32 C-0.83 9.88, 11.24 -0.9, 32 0 M0 32 C-0.38 12.23, 11.44 1.49, 32 0" stroke="#1e1e1e" stroke-width="1" fill="none"></path></g><g transform="translate(611.7658534704335 90) rotate(0 52.64995574951172 12.5)"><text x="0" y="0" font-family="Virgil, Segoe UI Emoji" font-size="20px" fill="#1e1e1e" text-anchor="start" style="white-space: pre;" direction="ltr" dominant-baseline="text-before-edge">HandlerCtx</text></g><g stroke-linecap="round" transform="translate(831.7658534704335 190) rotate(0 70 30)"><path d="M15 0 M15 0 C49.63 -0.06, 89.05 0.35, 125 0 M15 0 C57.1 -0.06, 98.84 -0.9, 125 0 M125 0 C134.29 -0.34, 140.65 6.04, 140 15 M125 0 C133.42 2.03, 141.49 5.53, 140 15 M140 15 C139.47 22.6, 138.9 35.15, 140 45 M140 15 C140.19 25.74, 140.74 34.85, 140 45 M140 45 C139.21 55.11, 134.2 61.12, 125 60 M140 45 C139.11 55.86, 133.79 62.11, 125 60 M125 60 C101.29 58.66, 76.4 59.56, 15 60 M125 60 C89.15 60.45, 55.28 59.86, 15 60 M15 60 C3.22 60.48, -1.22 54.79, 0 45 M15 60 C4.88 58.26, 1.31 55.32, 0 45 M0 45 C-0.08 33.23, 1.38 21.94, 0 15 M0 45 C0.16 37.27, -0.18 27.06, 0 15 M0 15 C-1.55 5.97, 5.96 1.33, 15 0 M0 15 C-1.03 6.03, 3.48 -1.25, 15 0" stroke="#1e1e1e" stroke-width="1" fill="none"></path></g><g transform="translate(848.2359004675038 207.5) rotate(0 53.52995300292969 12.5)"><text x="53.52995300292969" y="0" font-family="Virgil, Segoe UI Emoji" font-size="20px" fill="#1e1e1e" text-anchor="middle" style="white-space: pre;" direction="ltr" dominant-baseline="text-before-edge">OutHandler</text></g><g stroke-linecap="round" transform="translate(811.7658534704335 130) rotate(0 90 70)"><path d="M32 0 M32 0 C71.65 -0.31, 108.54 0.42, 148 0 M32 0 C68.12 0.64, 105.26 1.33, 148 0 M148 0 C167.96 1.77, 181.3 11.13, 180 32 M148 0 C169.66 -0.49, 181.76 10.13, 180 32 M180 32 C180.46 48.66, 180.35 63.87, 180 108 M180 32 C180.08 58.32, 180.08 85.08, 180 108 M180 108 C179.23 130.08, 168.29 141.83, 148 140 M180 108 C178.3 130.54, 168.6 141.32, 148 140 M148 140 C119.33 140.16, 90.87 138.59, 32 140 M148 140 C113.52 139.43, 80.2 139.09, 32 140 M32 140 C10.56 138.49, 1.14 129.61, 0 108 M32 140 C12.4 138.6, -2.06 129.03, 0 108 M0 108 C-0.75 86, -1.96 66.22, 0 32 M0 108 C-0.51 79.37, 0.75 50.43, 0 32 M0 32 C-0.89 11.57, 9.35 -1.08, 32 0 M0 32 C2.1 9.1, 10.5 -0.59, 32 0" stroke="#1e1e1e" stroke-width="1" fill="none"></path></g><g transform="translate(851.7658534704335 150) rotate(0 52.64995574951172 12.5)"><text x="0" y="0" font-family="Virgil, Segoe UI Emoji" font-size="20px" fill="#1e1e1e" text-anchor="start" style="white-space: pre;" direction="ltr" dominant-baseline="text-before-edge">HandlerCtx</text></g><g stroke-linecap="round" transform="translate(1091.7658534704335 130) rotate(0 70 30)"><path d="M15 0 M15 0 C53.5 1.05, 93.55 0.52, 125 0 M15 0 C45.83 0.21, 78.96 -0.96, 125 0 M125 0 C134.06 -1.77, 141.81 3.02, 140 15 M125 0 C135.35 -0.86, 139.31 5.6, 140 15 M140 15 C139.73 26.22, 139.76 34.67, 140 45 M140 15 C139.89 22.21, 139.79 31.02, 140 45 M140 45 C141.51 55.04, 136.64 60.8, 125 60 M140 45 C141.88 56.81, 135.24 58.65, 125 60 M125 60 C87.93 59.16, 49.06 58.76, 15 60 M125 60 C82.17 59.15, 39 60.5, 15 60 M15 60 C3.9 60.63, -1.05 54, 0 45 M15 60 C6.16 62.12, 0.42 54.75, 0 45 M0 45 C0.78 36.15, 1.37 28.3, 0 15 M0 45 C0.34 37.56, 0.12 27.72, 0 15 M0 15 C-1.21 6.35, 6.56 1.7, 15 0 M0 15 C-2.19 3.03, 6.06 -2.09, 15 0" stroke="#1e1e1e" stroke-width="1" fill="none"></path></g><g transform="translate(1111.7658534704335 150) rotate(0 45.059967041015625 12.5)"><text x="45.059967041015625" y="0" font-family="Virgil, Segoe UI Emoji" font-size="20px" fill="#1e1e1e" text-anchor="middle" style="white-space: pre;" direction="ltr" dominant-baseline="text-before-edge">InHandler</text></g><g stroke-linecap="round" transform="translate(1071.7658534704335 70) rotate(0 90 70)"><path d="M32 0 M32 0 C72.37 1.64, 113.88 -1.64, 148 0 M32 0 C72.51 -0.15, 114.86 -0.26, 148 0 M148 0 C169.64 -0.75, 179.4 11.19, 180 32 M148 0 C170.28 -1.44, 179.24 10.57, 180 32 M180 32 C179.44 59.61, 180.63 84.55, 180 108 M180 32 C180.47 47.3, 180.54 62.96, 180 108 M180 108 C181.63 130.91, 169.54 138.83, 148 140 M180 108 C181.18 129.62, 168.02 141.78, 148 140 M148 140 C116.18 138.58, 80.45 139.18, 32 140 M148 140 C119.73 141.16, 92.03 140.35, 32 140 M32 140 C11.68 141.84, 0.37 129.11, 0 108 M32 140 C9.86 141.83, -0.85 130.5, 0 108 M0 108 C-1.11 88.29, -0.37 69.83, 0 32 M0 108 C-0.65 79.74, 0.73 50.97, 0 32 M0 32 C-1.91 8.95, 11.59 -1.82, 32 0 M0 32 C1.88 10.19, 11.91 0.67, 32 0" stroke="#1e1e1e" stroke-width="1" fill="none"></path></g><g transform="translate(1111.7658534704335 90) rotate(0 52.64995574951172 12.5)"><text x="0" y="0" font-family="Virgil, Segoe UI Emoji" font-size="20px" fill="#1e1e1e" text-anchor="start" style="white-space: pre;" direction="ltr" dominant-baseline="text-before-edge">HandlerCtx</text></g><g transform="translate(1231.7658534704335 310) rotate(0 26.03998565673828 12.5)"><text x="0" y="0" font-family="Virgil, Segoe UI Emoji" font-size="20px" fill="#1e1e1e" text-anchor="start" style="white-space: pre;" direction="ltr" dominant-baseline="text-before-edge">TAIL</text></g><g transform="translate(31.765853470433512 310) rotate(0 26.6099853515625 12.5)"><text x="0" y="0" font-family="Virgil, Segoe UI Emoji" font-size="20px" fill="#1e1e1e" text-anchor="start" style="white-space: pre;" direction="ltr" dominant-baseline="text-before-edge">HEAD</text></g><g stroke-linecap="round"><g transform="translate(231.7658534704335 110) rotate(0 170.00440587593243 -0.5409070743172322)"><path d="M-0.05 -0.28 C56.49 -0.1, 282.44 0.58, 339.23 0.48 M-1.53 -1.48 C55.39 -1.6, 284.57 -1.63, 341.54 -1.39" stroke="#1e1e1e" stroke-width="1" fill="none"></path></g><g transform="translate(231.7658534704335 110) rotate(0 170.00440587593243 -0.5409070743172322)"><path d="M312.86 7.54 C322.64 6.95, 328.78 3.29, 339.7 -1.92 M312.95 8.17 C320.47 6.25, 328.42 3.28, 341.62 -1.27" stroke="#1e1e1e" stroke-width="1" fill="none"></path></g><g transform="translate(231.7658534704335 110) rotate(0 170.00440587593243 -0.5409070743172322)"><path d="M312.9 -12.98 C322.56 -7.42, 328.69 -4.93, 339.7 -1.92 M312.99 -12.35 C320.54 -8.69, 328.49 -6.09, 341.62 -1.27" stroke="#1e1e1e" stroke-width="1" fill="none"></path></g></g><mask></mask><g stroke-linecap="round"><g transform="translate(751.7658534704335 110) rotate(0 159.5764049317687 -0.2442409202603244)"><path d="M-0.84 0.77 C52.3 0.94, 266.7 0.82, 320 0.52 M0.92 0.13 C53.8 -0.01, 265.66 -1.27, 319.05 -1.34" stroke="#1e1e1e" stroke-width="1" fill="none"></path></g><g transform="translate(751.7658534704335 110) rotate(0 159.5764049317687 -0.2442409202603244)"><path d="M292.18 9.03 C302.88 3.34, 311.39 2.56, 321.01 -0.77 M290.76 9.7 C301.2 5.31, 311.64 2.18, 318.89 -1.37" stroke="#1e1e1e" stroke-width="1" fill="none"></path></g><g transform="translate(751.7658534704335 110) rotate(0 159.5764049317687 -0.2442409202603244)"><path d="M292.1 -11.5 C302.74 -9.1, 311.28 -1.81, 321.01 -0.77 M290.68 -10.82 C301.22 -7.92, 311.68 -3.77, 318.89 -1.37" stroke="#1e1e1e" stroke-width="1" fill="none"></path></g></g><mask></mask><g stroke-linecap="round"><g transform="translate(1071.7658534704335 170) rotate(0 -40.330348031567496 0.46316909791275407)"><path d="M0.76 1.02 C-12.72 1.34, -66.75 1.36, -80.31 1.16 M-0.31 0.51 C-14.02 0.59, -67.86 -0.44, -81.42 -0.36" stroke="#1e1e1e" stroke-width="1" fill="none"></path></g><g transform="translate(1071.7658534704335 170) rotate(0 -40.330348031567496 0.46316909791275407)"><path d="M-51.45 -10.91 C-61.1 -7.68, -73.19 -3.22, -81.61 1.59 M-53.59 -11.39 C-58.9 -7.52, -64.17 -5.99, -81.54 -0.52" stroke="#1e1e1e" stroke-width="1" fill="none"></path></g><g transform="translate(1071.7658534704335 170) rotate(0 -40.330348031567496 0.46316909791275407)"><path d="M-51.61 9.61 C-61.07 5.71, -73.11 3.04, -81.61 1.59 M-53.75 9.13 C-59.1 8.74, -64.33 6.02, -81.54 -0.52" stroke="#1e1e1e" stroke-width="1" fill="none"></path></g></g><mask></mask><g stroke-linecap="round"><g transform="translate(811.7658534704335 230) rotate(0 -160.18094707677142 0.4495768557564759)"><path d="M0.29 0.38 C-53.14 0.29, -266.3 -0.23, -319.81 -0.11 M-1.02 -0.47 C-54.66 -0.39, -267.78 1.4, -320.65 1.37" stroke="#1e1e1e" stroke-width="1" fill="none"></path></g><g transform="translate(811.7658534704335 230) rotate(0 -160.18094707677142 0.4495768557564759)"><path d="M-291.88 -8.69 C-302.95 -6.39, -311.18 -1.03, -321.64 1.74 M-293.28 -9.02 C-299.79 -7.11, -305.42 -3.03, -321.11 0.43" stroke="#1e1e1e" stroke-width="1" fill="none"></path></g><g transform="translate(811.7658534704335 230) rotate(0 -160.18094707677142 0.4495768557564759)"><path d="M-291.79 11.83 C-302.95 6.62, -311.22 4.48, -321.64 1.74 M-293.19 11.5 C-299.64 8.52, -305.3 7.71, -321.11 0.43" stroke="#1e1e1e" stroke-width="1" fill="none"></path></g></g><mask></mask><g stroke-linecap="round"><g transform="translate(311.7658534704335 230) rotate(0 -150.9121298474539 -0.5440974407521537)"><path d="M-0.06 0.67 C-50.34 0.77, -250.61 0.26, -300.54 0.23 M-1.55 -0.02 C-52.13 -0.28, -252 -1.51, -301.77 -1.77" stroke="#1e1e1e" stroke-width="1" fill="none"></path></g><g transform="translate(311.7658534704335 230) rotate(0 -150.9121298474539 -0.5440974407521537)"><path d="M-272.39 -12.76 C-284.31 -7.23, -295.01 -5.73, -302.78 -1.32 M-272.78 -12.39 C-280.23 -10.59, -286.45 -8.1, -302.05 -2.62" stroke="#1e1e1e" stroke-width="1" fill="none"></path></g><g transform="translate(311.7658534704335 230) rotate(0 -150.9121298474539 -0.5440974407521537)"><path d="M-272.51 7.76 C-284.32 5.2, -294.98 -1.4, -302.78 -1.32 M-272.9 8.13 C-280.35 5.31, -286.54 3.18, -302.05 -2.62" stroke="#1e1e1e" stroke-width="1" fill="none"></path></g></g><mask></mask><g stroke-linecap="round"><g transform="translate(11.765853470433512 110) rotate(0 19.93199847589247 -0.676305136913868)"><path d="M0.82 0.13 C7.34 0.17, 33.72 0.39, 40.07 0.33 M-0.21 -0.85 C6.08 -1.19, 32.24 -1.92, 39.16 -1.62" stroke="#1e1e1e" stroke-width="1" fill="none"></path></g><g transform="translate(11.765853470433512 110) rotate(0 19.93199847589247 -0.676305136913868)"><path d="M20.56 5.29 C28 0.75, 34.18 -0.34, 38.01 -0.87 M19.61 5.38 C24.95 3.63, 29.06 1.36, 39.48 -1.19" stroke="#1e1e1e" stroke-width="1" fill="none"></path></g><g transform="translate(11.765853470433512 110) rotate(0 19.93199847589247 -0.676305136913868)"><path d="M20.6 -8.39 C28.03 -7.76, 34.2 -3.69, 38.01 -0.87 M19.65 -8.3 C25.02 -6.85, 29.12 -5.93, 39.48 -1.19" stroke="#1e1e1e" stroke-width="1" fill="none"></path></g></g><mask></mask><g transform="translate(71.76585347043351 90) rotate(0 2.7099990844726562 12.5)"><text x="0" y="0" font-family="Virgil, Segoe UI Emoji" font-size="20px" fill="#1e1e1e" text-anchor="start" style="white-space: pre;" direction="ltr" dominant-baseline="text-before-edge">1</text></g><g transform="translate(331.7658534704335 150) rotate(0 7.1199951171875 12.5)"><text x="0" y="0" font-family="Virgil, Segoe UI Emoji" font-size="20px" fill="#1e1e1e" text-anchor="start" style="white-space: pre;" direction="ltr" dominant-baseline="text-before-edge">2</text></g><g transform="translate(591.7658534704335 90) rotate(0 6.80999755859375 12.5)"><text x="0" y="0" font-family="Virgil, Segoe UI Emoji" font-size="20px" fill="#1e1e1e" text-anchor="start" style="white-space: pre;" direction="ltr" dominant-baseline="text-before-edge">3</text></g><g transform="translate(831.7658534704335 150) rotate(0 6.399993896484375 12.5)"><text x="0" y="0" font-family="Virgil, Segoe UI Emoji" font-size="20px" fill="#1e1e1e" text-anchor="start" style="white-space: pre;" direction="ltr" dominant-baseline="text-before-edge">4</text></g><g transform="translate(1091.7658534704335 90) rotate(0 6.17999267578125 12.5)"><text x="0" y="0" font-family="Virgil, Segoe UI Emoji" font-size="20px" fill="#1e1e1e" text-anchor="start" style="white-space: pre;" direction="ltr" dominant-baseline="text-before-edge">5</text></g><g transform="translate(591.7658534704335 10) rotate(0 50.02996826171875 12.5)"><text x="0" y="0" font-family="Virgil, Segoe UI Emoji" font-size="20px" fill="#1e1e1e" text-anchor="start" style="white-space: pre;" direction="ltr" dominant-baseline="text-before-edge">PIPELINE</text></g><g transform="translate(1011.7658534704335 190) rotate(0 23.699974060058594 12.5)"><text x="0" y="0" font-family="Virgil, Segoe UI Emoji" font-size="20px" fill="#1e1e1e" text-anchor="start" style="white-space: pre;" direction="ltr" dominant-baseline="text-before-edge">write</text></g></svg>